<?xml version="1.0" encoding="UTF-8"?>
<svg id="_圖層_2" data-name="圖層 2" xmlns="http://www.w3.org/2000/svg" width="36.67" height="31.4" viewBox="0 0 36.67 31.4">
  <defs>
    <style>
      .cls-1 {
        fill: #fff;
      }
    </style>
  </defs>
  <g id="_圖層_2-2" data-name="圖層 2">
    <path id="a1" class="cls-1" d="m5.39,13.39c.9-6.34,6.35-11.21,12.94-11.21,3.95,0,7.49,1.75,9.89,4.52.39.45,1.08.5,1.54.11s.5-1.08.11-1.54c-2.79-3.23-6.93-5.28-11.54-5.28C10.46,0,3.99,5.96,3.17,13.61l-1.31-1.31c-.43-.43-1.11-.43-1.54,0-.43.43-.43,1.12,0,1.54l3.08,3.08c.43.43,1.11.43,1.54,0l3.08-3.08c.43-.43.43-1.12,0-1.54-.43-.43-1.11-.43-1.54,0l-1.09,1.09Zm9.67.77c0-1.8,1.46-3.27,3.27-3.27s3.27,1.46,3.27,3.27-1.46,3.27-3.27,3.27-3.27-1.46-3.27-3.27h0Zm3.27-1.09c-.6,0-1.09.49-1.09,1.09s.49,1.09,1.09,1.09,1.09-.49,1.09-1.09-.49-1.09-1.09-1.09h0Zm6.59,6.77c3.02-3.47,2.85-8.68-.4-11.93-3.41-3.41-8.95-3.41-12.37,0-3.25,3.25-3.43,8.47-.4,11.93l5.08,5.82c.8.91,2.22.91,3.01,0l5.08-5.82Zm-11.23-10.39c2.56-2.56,6.72-2.56,9.29,0,2.44,2.44,2.57,6.36.3,8.96l-4.95,5.67-4.95-5.67c-2.27-2.6-2.14-6.52.3-8.96h0Zm19.81,8.34l1.31,1.31c.43.43,1.12.43,1.54,0s.43-1.11,0-1.54l-3.08-3.08c-.43-.43-1.11-.43-1.54,0l-3.08,3.08c-.43.43-.43,1.11,0,1.54s1.12.43,1.54,0l1.09-1.09c-.9,6.34-6.35,11.21-12.94,11.21-3.95,0-7.49-1.75-9.89-4.52-.39-.45-1.08-.5-1.54-.11-.45.39-.5,1.08-.11,1.54,2.79,3.23,6.93,5.28,11.54,5.28,7.87,0,14.34-5.96,15.16-13.61h0Z"/>
  </g>
</svg>