<?xml version="1.0" encoding="UTF-8"?>
<svg id="_圖層_2" data-name="圖層 2" xmlns="http://www.w3.org/2000/svg" width="33.01" height="30.26" viewBox="0 0 33.01 30.26">
  <defs>
    <style>
      .cls-1 {
        fill: #fff;
      }
    </style>
  </defs>
  <g id="_圖層_2-2" data-name="圖層 2">
    <path id="a2" class="cls-1" d="m6.88,0c-.52,0-.99.3-1.23.76L.15,11.76c-.1.19-.15.4-.15.62,0,.75.62,1.37,1.37,1.37h1.91L.15,20.01c-.1.19-.15.4-.15.62,0,.75.62,1.37,1.37,1.37h2.01L.16,28.24c-.48.91.19,2.01,1.22,2.01h24.75c.52,0,.99-.3,1.23-.76l5.5-11c.46-.91-.21-1.99-1.23-1.99h-1.9l3.13-6.26c.1-.19.15-.4.15-.62,0-.75-.62-1.37-1.37-1.37h-1.9l3.13-6.26c.1-.19.15-.4.15-.62C33,.62,32.39,0,31.63,0H6.88Zm.84,2.75h21.68l-4.12,8.25H3.6L7.72,2.75Zm20.63,8.25h1.04l-4.12,8.25H3.6l2.76-5.5h19.78c.52,0,.99-.3,1.23-.76l1-1.99Zm0,8.25h1.05l-4.12,8.25H3.64l2.83-5.5h19.66c.52,0,1-.3,1.23-.76l.99-1.99Z"/>
  </g>
</svg>