<?xml version="1.0" encoding="UTF-8"?>
<svg id="_圖層_2" data-name="圖層 2" xmlns="http://www.w3.org/2000/svg" width="36" height="36" viewBox="0 0 36 36">
  <defs>
    <style>
      .cls-1 {
        fill: #fff;
      }
    </style>
  </defs>
  <g id="_圖層_2-2" data-name="圖層 2">
    <path id="a3" class="cls-1" d="m35.25,17.25h-.79c-.37-8.52-7.19-15.35-15.71-15.71v-.79c0-.41-.34-.75-.75-.75s-.75.34-.75.75v.77C8.73,1.92,1.92,8.73,1.52,17.25h-.77c-.41,0-.75.34-.75.75s.34.75.75.75h.77c.4,8.52,7.21,15.33,15.73,15.73v.77c0,.41.34.75.75.75s.75-.34.75-.75v-.77c8.52-.4,15.33-7.21,15.73-15.73h.77c.41,0,.75-.34.75-.75s-.34-.75-.75-.75ZM17.25,3.04v3c-6.03.38-10.83,5.19-11.21,11.21h-3c.39-7.68,6.53-13.82,14.21-14.21ZM3.04,18.75h5.21c.41,0,.75-.34.75-.75s-.34-.75-.75-.75h-.71c.38-5.2,4.51-9.33,9.71-9.71v.71c0,.41.34.75.75.75s.75-.34.75-.75v-.72c4.43.32,8.18,3.39,9.38,7.67.11.4.52.63.92.52.4-.11.63-.52.52-.92-1.38-4.93-5.72-8.44-10.82-8.77v-2.99c7.69.37,13.85,6.52,14.21,14.21h-5.21c-.41,0-.75.34-.75.75s.34.75.75.75h.71c-.38,5.2-4.51,9.33-9.71,9.71v-.71c0-.41-.34-.75-.75-.75s-.75.34-.75.75v.72c-4.43-.32-8.18-3.39-9.38-7.67-.11-.4-.52-.63-.92-.52s-.63.52-.52.92c1.38,4.93,5.72,8.44,10.82,8.77v2.99c-7.68-.39-13.82-6.53-14.21-14.21Zm15.71,14.21v-3c6.03-.38,10.83-5.19,11.21-11.21h3c-.39,7.68-6.53,13.82-14.21,14.21Zm-.75-7.46c.29,0,.55-.16.67-.42.39-.8,3.83-7.9,3.83-10.08,0-2.49-2.01-4.5-4.5-4.5s-4.5,2.01-4.5,4.5c0,2.18,3.43,9.28,3.83,10.08.13.26.39.42.67.42Zm0-13.5c1.66,0,3,1.34,3,3,0,1.18-1.64,5.08-3,8.01-1.36-2.92-3-6.83-3-8.01,0-1.66,1.34-3,3-3Zm2.25,3c0-1.24-1.01-2.25-2.25-2.25s-2.25,1.01-2.25,2.25,1.01,2.25,2.25,2.25,2.25-1.01,2.25-2.25Zm-3,0c0-.41.34-.75.75-.75s.75.34.75.75-.34.75-.75.75-.75-.34-.75-.75Z"/>
  </g>
</svg>