<?xml version="1.0" encoding="UTF-8"?>
<svg id="_圖層_2" data-name="圖層 2" xmlns="http://www.w3.org/2000/svg" width="30" height="34.92" viewBox="0 0 30 34.92">
  <defs>
    <style>
      .cls-1 {
        fill: #fdfeff;
      }
    </style>
  </defs>
  <g id="_圖層_2-2" data-name="圖層 2">
    <path id="a4" class="cls-1" d="m15,19.09c-3.76,0-6.82,3.06-6.82,6.82,0,1.39.42,2.68,1.13,3.76l-3.32,3.32,1.93,1.93,3.32-3.32c1.08.71,2.37,1.13,3.76,1.13,3.76,0,6.82-3.06,6.82-6.82s-3.06-6.82-6.82-6.82h0Zm0,10.91c-2.26,0-4.09-1.84-4.09-4.09s1.84-4.09,4.09-4.09,4.09,1.84,4.09,4.09-1.84,4.09-4.09,4.09Zm6.68-24.55c-.63-3.11-3.39-5.45-6.68-5.45s-6.05,2.35-6.68,5.45H0v21.82h5.55c-.06-.45-.1-.9-.1-1.36s.03-.92.1-1.36h-2.83v-9.55c1.14.86,2.56,1.37,4.09,1.37h16.36c1.53,0,2.95-.51,4.09-1.37v9.55h-2.83c.06.45.1.9.1,1.36s-.03.92-.1,1.36h5.55V5.45h-8.32Zm-6.68-2.73c1.78,0,3.29,1.14,3.86,2.73h-7.71c.56-1.59,2.08-2.73,3.86-2.73Zm8.18,10.91H6.82c-2.26,0-4.09-1.84-4.09-4.09v-1.36h24.55v1.36c0,2.26-1.84,4.09-4.09,4.09Z"/>
  </g>
</svg>