<?xml version="1.0" encoding="UTF-8"?>
<svg id="_圖層_2" data-name="圖層 2" xmlns="http://www.w3.org/2000/svg" width="30.25" height="30.25" viewBox="0 0 30.25 30.25">
  <defs>
    <style>
      .cls-1 {
        fill: #fff;
      }
    </style>
  </defs>
  <g id="_圖層_2-2" data-name="圖層 2">
    <g id="a5">
      <path class="cls-1" d="m2.54,6.9h11.61c.27,0,.48-.22.48-.48v-3.87c0-.27-.22-.48-.48-.48H2.54c-.27,0-.48.22-.48.48v3.87c0,.27.22.48.48.48Zm.48-3.87h10.64v2.9H3.03v-2.9Zm21.47,18.85c.46-.65.39-1.55-.18-2.12l-.87-.87c.94-2.74.14-5.78-2.03-7.71v-5.73c0-.13-.05-.25-.14-.34L16.43.27c-.09-.09-.21-.14-.34-.14H.61C.34.12.12.34.12.61v29.02c0,.27.22.48.48.48h20.32c.27,0,.48-.22.48-.48v-4.92c.17-.05.32-.12.46-.22l5.08,5.08c.72.73,1.89.74,2.62.02.73-.72.74-1.89.02-2.62,0,0-.01-.01-.02-.02l-5.08-5.08Zm-.87-1.43c.27.27.27.7,0,.97h0s-2.22,2.22-2.22,2.22c-.27.26-.7.26-.97,0l-.59-.59c1.37-.7,2.49-1.81,3.19-3.19l.59.59Zm-.77-3.87c0,3.47-2.82,6.29-6.29,6.29s-6.29-2.82-6.29-6.29,2.82-6.29,6.29-6.29c3.47,0,6.28,2.82,6.29,6.29Zm-13.27-1.93H3.03v-4.84h9.67v.65c-1.52.96-2.63,2.46-3.12,4.19ZM16.57,1.78l3.19,3.19h-3.19V1.78ZM1.09,29.15V1.09h14.51v4.35c0,.27.22.48.48.48h4.35v4.52c-2.03-1.29-4.57-1.49-6.77-.52v-.61c0-.27-.22-.48-.48-.48H2.54c-.27,0-.48.22-.48.48v5.8c0,.27.22.48.48.48h6.84c-.05.32-.07.64-.07.97H2.06v.97h7.33c.04.33.11.65.2.97H2.06v.97h7.87c.15.34.32.66.52.97H2.06v.97h9.12c1.93,2.17,4.96,2.97,7.71,2.03l.87.87c.19.19.43.33.68.4v4.43H1.09Zm27.17,0c-.23,0-.46-.09-.63-.26l-5.06-5.06,1.25-1.25,5.06,5.06c.35.35.34.91,0,1.25-.17.17-.39.26-.62.26Zm-11.13-17.35c-1.3-.31-2.61.49-2.92,1.79-.04.18-.07.37-.07.56h.97c0-.8.64-1.46,1.44-1.46.67,0,1.26.46,1.42,1.11.13.55-.06,1.13-.51,1.48-.86.65-1.37,1.66-1.39,2.74v.48h.97v-.5c.02-.78.4-1.5,1.03-1.97.73-.59,1.06-1.54.85-2.45-.21-.89-.9-1.58-1.79-1.79Zm-.56,7.68c.53,0,.97.43.97.97s-.43.97-.97.97-.97-.43-.97-.97.43-.97.97-.97Z"/>
      <path class="cls-1" d="m28.27,30.25h-.01c-.53,0-1.02-.21-1.39-.59l-5.01-5.01c-.1.06-.21.11-.32.15v4.83c0,.34-.27.61-.61.61H.61c-.34,0-.61-.27-.61-.61V.61c0-.34.27-.61.61-.61h15.48c.16,0,.32.06.43.18l4.84,4.84c.12.12.18.27.18.43v5.68c2.16,1.95,2.96,4.97,2.05,7.73l.82.82c.59.59.69,1.49.25,2.19l5.01,5.01c.39.39.59.89.59,1.42,0,.53-.21,1.02-.59,1.39-.37.37-.87.57-1.39.57Zm-6.38-5.92l.07.07,5.08,5.08c.67.68,1.77.69,2.44.02.33-.32.51-.76.51-1.22,0-.46-.17-.9-.5-1.22l-5.17-5.17.06-.09c.43-.61.36-1.43-.17-1.96l-.93-.93.03-.07c.92-2.7.14-5.68-2-7.57l-.04-.04v-5.79c0-.1-.04-.19-.11-.25L16.34.36c-.07-.07-.16-.11-.25-.11H.61c-.2,0-.36.16-.36.36v29.02c0,.2.16.36.36.36h20.32c.2,0,.36-.16.36-.36v-5.01l.09-.03c.15-.05.3-.12.43-.21l.09-.06Zm6.38,4.94c-.27,0-.52-.1-.71-.3l-5.15-5.15,1.43-1.43.09.09,5.06,5.06c.19.19.3.45.29.71,0,.27-.11.52-.3.71-.19.19-.45.29-.71.29Zm-5.51-5.45l4.97,4.97c.28.28.79.29,1.07,0,.14-.14.22-.33.22-.54,0-.2-.08-.39-.22-.54l-4.97-4.97-1.07,1.07Zm-2.19,5.45H.97V.97h14.76v4.48c0,.2.16.36.36.36h4.48v4.87l-.19-.12c-2-1.27-4.48-1.47-6.65-.51l-.18.08v-.8c0-.2-.16-.36-.36-.36H2.54c-.2,0-.36.16-.36.36v5.81c0,.2.16.36.36.36h6.99l-.02.14c-.04.32-.07.64-.07.95v.12H2.19v.72h7.31v.11c.06.32.12.64.21.95l.04.16H2.19v.72h7.82l.03.07c.15.33.32.65.51.95l.12.19H2.19v.72h9.05l.04.04c1.9,2.14,4.87,2.92,7.58,2l.07-.03.93.92c.17.17.39.3.63.37l.09.03v4.65Zm-19.35-.25h19.1v-4.22c-.24-.09-.46-.23-.65-.41l-.82-.82c-2.76.91-5.78.11-7.73-2.05H1.94v-1.22h8.29c-.14-.23-.26-.47-.38-.72H1.94v-1.22h7.49c-.06-.24-.11-.48-.14-.72H1.94v-1.22h7.26c0-.24.02-.48.05-.72H2.54c-.34,0-.61-.27-.61-.61v-5.81c0-.34.27-.61.61-.61h10.64c.34,0,.61.27.61.61v.42c2.14-.88,4.54-.69,6.52.48v-4.17h-4.23c-.34,0-.61-.27-.61-.61V1.22H1.22v27.81Zm19.71-5.08c-.21,0-.41-.08-.57-.23l-.71-.72.15-.08c1.36-.69,2.44-1.77,3.13-3.13l.08-.15.71.71c.31.32.31.83,0,1.14l-2.22,2.22c-.16.15-.37.23-.57.23Zm-.87-.88l.47.47c.22.21.57.21.79,0l2.22-2.22c.22-.22.22-.57,0-.79l-.47-.47c-.69,1.28-1.73,2.32-3.01,3.01Zm-3.49-.08c-3.54,0-6.41-2.88-6.41-6.41s2.88-6.41,6.41-6.41c3.53,0,6.41,2.88,6.41,6.41h0c0,3.54-2.88,6.41-6.41,6.41Zm0-12.58c-3.4,0-6.16,2.77-6.16,6.16s2.77,6.16,6.16,6.16,6.16-2.76,6.16-6.16c0-3.39-2.77-6.16-6.16-6.16Zm0,11.13c-.6,0-1.09-.49-1.09-1.09s.49-1.09,1.09-1.09,1.09.49,1.09,1.09-.49,1.09-1.09,1.09Zm0-1.93c-.46,0-.84.38-.84.84s.38.84.84.84.84-.38.84-.84-.38-.84-.84-.84Zm.61-.97h-1.22v-.61c.02-1.12.54-2.16,1.44-2.83.4-.32.58-.85.46-1.35-.14-.6-.67-1.02-1.29-1.02h0c-.73,0-1.32.6-1.32,1.33v.13s-1.22,0-1.22,0v-.12c0-.2.02-.4.07-.59.33-1.37,1.7-2.21,3.07-1.89.93.22,1.67.96,1.88,1.88.23.95-.12,1.97-.89,2.58-.6.45-.96,1.13-.98,1.87v.62Zm-.97-.25h.72v-.37c.03-.82.42-1.57,1.08-2.07.69-.55,1-1.46.8-2.32-.19-.84-.86-1.5-1.7-1.7h0c-1.23-.29-2.47.47-2.77,1.7-.03.13-.05.27-.06.41h.72c.06-.81.73-1.46,1.56-1.46h0c.73,0,1.36.5,1.53,1.21.14.6-.07,1.23-.55,1.61-.83.63-1.32,1.6-1.34,2.64v.36Zm-6.53-3.62H2.9v-5.09h9.92v.84l-.06.04c-1.5.95-2.59,2.41-3.06,4.12l-.03.09Zm-6.53-.25h6.34c.5-1.71,1.59-3.17,3.09-4.13v-.45H3.15v4.59Zm11-7.49H2.54c-.34,0-.61-.27-.61-.61v-3.87c0-.34.27-.61.61-.61h11.61c.34,0,.61.27.61.61v3.87c0,.34-.27.61-.61.61ZM2.54,2.18c-.2,0-.36.16-.36.36v3.87c0,.2.16.36.36.36h11.61c.2,0,.36-.16.36-.36v-3.87c0-.2-.16-.36-.36-.36H2.54Zm11.25,3.87H2.9v-3.15h10.89v3.15Zm-10.64-.25h10.39v-2.65H3.15v2.65Zm16.91-.72h-3.61V1.47l3.61,3.61Zm-3.36-.25h2.76l-2.76-2.76v2.76Z"/>
    </g>
  </g>
</svg>