<?xml version="1.0" encoding="UTF-8"?>
<svg id="_圖層_2" data-name="圖層 2" xmlns="http://www.w3.org/2000/svg" width="52.05" height="47.9" viewBox="0 0 52.05 47.9">
  <defs>
    <style>
      .cls-1 {
        fill: #fff;
      }
    </style>
  </defs>
  <g id="_圖層_2-2" data-name="圖層 2">
    <path id="a6" class="cls-1" d="m38.35,24.17v-.44c0-.96-.78-1.74-1.74-1.74h0c-.77,0-1.44-.51-1.66-1.25-.22-.73-.51-1.42-.86-2.08-.37-.68-.25-1.52.29-2.06h0c.68-.68.68-1.78,0-2.46l-.31-.31c-.68-.68-1.78-.68-2.45,0h0c-.55.55-1.38.66-2.06.29-.66-.35-1.35-.64-2.08-.86-.74-.22-1.25-.89-1.25-1.66h0c0-.96-.78-1.74-1.74-1.74h-.44c-.96,0-1.74.78-1.74,1.74h0c0,.77-.51,1.44-1.25,1.66-.73.22-1.42.51-2.08.86-.68.37-1.52.25-2.06-.29h0c-.68-.68-1.78-.68-2.45,0l-.31.31c-.68.68-.68,1.78,0,2.45h0c.55.55.66,1.38.29,2.06-.35.66-.64,1.35-.86,2.08-.22.74-.89,1.25-1.66,1.25h0c-.96,0-1.74.78-1.74,1.74v.44c0,.96.78,1.74,1.74,1.74h0c.77,0,1.44.51,1.66,1.25.22.73.51,1.42.86,2.08.37.68.25,1.52-.29,2.06h0c-.68.68-.68,1.78,0,2.46l.31.31c.68.68,1.78.68,2.45,0h0c.55-.55,1.38-.66,2.06-.29.66.35,1.35.64,2.08.86.74.22,1.25.89,1.25,1.66h0c0,.96.78,1.74,1.74,1.74h.44c.96,0,1.74-.78,1.74-1.74h0c0-.77.51-1.44,1.25-1.66.73-.22,1.42-.51,2.08-.86.68-.37,1.52-.25,2.06.29h0c.68.68,1.78.68,2.45,0l.31-.31c.68-.68.68-1.78,0-2.45h0c-.55-.55-.66-1.38-.29-2.06.35-.66.64-1.35.86-2.08.22-.74.89-1.25,1.66-1.25h0c.96,0,1.74-.78,1.74-1.74Zm-14.08,6.92c-3.94,0-7.14-3.2-7.14-7.14s3.2-7.14,7.14-7.14,7.14,3.2,7.14,7.14-3.2,7.14-7.14,7.14Zm27.67-9.39l-5.03,5.75c-.19.21-.51.21-.7,0l-5.01-5.73c-.3-.34.01-.86.45-.76l3.46.77c-1.11-10.7-10.18-19.06-21.17-19.06C12.21,2.67,2.67,12.21,2.67,23.95s9.55,21.28,21.28,21.28c8.13,0,15.67-4.74,19.19-12.08.32-.66,1.12-.94,1.78-.62.66.32.94,1.12.62,1.78-1.93,4.01-4.93,7.4-8.68,9.81-3.85,2.47-8.32,3.78-12.92,3.78-6.4,0-12.41-2.49-16.93-7.01C2.49,36.36,0,30.34,0,23.95S2.49,11.54,7.01,7.01C11.54,2.49,17.55,0,23.95,0s12.41,2.49,16.93,7.01c3.99,3.99,6.4,9.15,6.91,14.7l3.7-.78c.44-.09.74.42.45.76Z"/>
  </g>
</svg>