<?xml version="1.0" encoding="UTF-8"?>
<svg id="_圖層_2" data-name="圖層 2" xmlns="http://www.w3.org/2000/svg" width="37" height="39.29" viewBox="0 0 37 39.29">
  <defs>
    <style>
      .cls-1 {
        fill: #fff;
      }
    </style>
  </defs>
  <g id="_圖層_2-2" data-name="圖層 2">
    <g>
      <path class="cls-1" d="m34.33,18.15h-.73v-9.68c0-.21-.08-.4-.23-.54s-.34-.22-.55-.21c-.41.01-.74.36-.74.78v9.65h-3.63c-.42,0-.76.34-.76.76s.34.76.76.76h5.88c.63,0,1.15.51,1.15,1.15s-.51,1.15-1.15,1.15h-11.46v-2.29h2.92c.42,0,.76-.34.76-.76s-.34-.76-.76-.76h-3.24c-.43,0-.83.23-1.04.61h-3.8c-.2-.37-.58-.61-1.01-.61h-1.67c-.42,0-.81.24-1.01.61h-2.13v-.3c0-.5-.24-.95-.64-1.24v-1.21c1.03-.37,1.73-1.37,1.73-2.47,0-1.45-1.18-2.62-2.62-2.62h-1.73V1.52h23.45v4.3c0,.21.08.4.23.54.15.14.34.22.55.21.41-.01.74-.36.74-.78V1.14c0-.63-.51-1.14-1.14-1.14H8.26c-.63,0-1.14.51-1.14,1.14v9.78h-1.51c-1.45,0-2.62,1.18-2.62,2.62,0,1.1.71,2.09,1.73,2.47v1.21c-.41.29-.64.74-.64,1.24v4.72c0,.5.24.95.64,1.24v1.21c-1.03.37-1.73,1.37-1.73,2.47,0,1.45,1.18,2.62,2.62,2.62h1.51v1.6H2.86c-.84,0-1.52.68-1.52,1.52v.77c-.75.09-1.34.73-1.34,1.51v2.04c0,.63.51,1.14,1.14,1.14h31.33c.63,0,1.14-.51,1.14-1.14v-14.67h.73c1.47,0,2.67-1.2,2.67-2.67s-1.2-2.66-2.67-2.66Zm-22.43,3.21v-1.08h2v1.08h-2Zm3.52.61v-2.29h.91v2.29h-.91Zm2.43-.61v-1.08h3.51v1.08h-3.51Zm-12.05,13.99c0-.42-.34-.76-.76-.76h-2.19v-.76s10.27,0,10.27,0v.76h-5.42c-.42,0-.76.34-.76.76s.34.76.76.76h6.76v1.67H1.52v-1.67h3.53c.42,0,.76-.34.76-.76Zm4.57-20.71h-4.77c-.29,0-.57-.11-.78-.32s-.32-.49-.32-.78c0-.61.5-1.1,1.1-1.1h4.76c.61,0,1.1.5,1.1,1.1s-.5,1.1-1.1,1.1Zm-.63,1.52v.78h-3.51v-.78h3.51Zm4.9,18.44v-.77c0-.84-.68-1.52-1.52-1.52h-4.49v-1.6h1.73c1.45,0,2.62-1.18,2.62-2.62,0-1.1-.71-2.09-1.73-2.47v-1.21c.41-.29.64-.74.64-1.24v-.3h2.13c.2.37.58.61,1.01.61h1.67c.42,0,.81-.24,1.01-.61h3.8c.21.37.6.61,1.04.61h9.54v14.29H15.99v-1.67c0-.77-.58-1.41-1.34-1.51Zm-4.26-16.14v4.72h-4.8s0-4.72,0-4.72h4.79Zm-.64,6.24v.78h-3.51v-.78h3.51Zm-4.14,2.3h4.76c.61,0,1.1.5,1.1,1.1s-.5,1.1-1.1,1.1h-4.76c-.61,0-1.1-.49-1.1-1.1s.5-1.1,1.1-1.1Z"/>
      <path class="cls-1" d="m14.27,9.63c0,3.36,2.73,6.09,6.09,6.09s6.09-2.73,6.09-6.09-2.73-6.09-6.09-6.09-6.09,2.73-6.09,6.09Zm1.52,0c0-2.52,2.05-4.57,4.57-4.57s4.57,2.05,4.57,4.57-2.05,4.57-4.57,4.57-4.57-2.05-4.57-4.57Z"/>
      <path class="cls-1" d="m19.55,11.7c.14.14.33.22.54.22s.39-.08.54-.22l2.72-2.72c.3-.3.3-.78,0-1.07-.3-.3-.78-.3-1.07,0l-2.18,2.18-1.22-1.22c-.3-.3-.78-.3-1.07,0-.14.14-.22.33-.22.54,0,.2.08.39.22.54l1.75,1.75Z"/>
      <path class="cls-1" d="m18.13,26.38h10.48c.42,0,.76-.34.76-.76s-.34-.76-.76-.76h-10.48c-.42,0-.76.34-.76.76s.34.76.76.76Z"/>
      <path class="cls-1" d="m28.62,27.63h-5.4c-.42,0-.76.34-.76.76s.34.76.76.76h5.4c.42,0,.76-.34.76-.76s-.34-.76-.76-.76Z"/>
      <path class="cls-1" d="m18.13,29.15h3.1c.42,0,.76-.34.76-.76s-.34-.76-.76-.76h-3.1c-.42,0-.76.34-.76.76s.34.76.76.76Z"/>
      <path class="cls-1" d="m18.13,31.92h10.48c.42,0,.76-.34.76-.76s-.34-.76-.76-.76h-10.48c-.42,0-.76.34-.76.76s.34.76.76.76Z"/>
      <path class="cls-1" d="m28.62,33.18h-2.74c-.42,0-.76.34-.76.76s.34.76.76.76h2.74c.42,0,.76-.34.76-.76s-.34-.76-.76-.76Z"/>
      <path class="cls-1" d="m18.13,34.69h5.99c.42,0,.76-.34.76-.76s-.34-.76-.76-.76h-5.99c-.42,0-.76.34-.76.76s.34.76.76.76Z"/>
    </g>
  </g>
</svg>