<?xml version="1.0" encoding="utf-8"?>
<!-- Generator: Adobe Illustrator 27.3.1, SVG Export Plug-In . SVG Version: 6.00 Build 0)  -->
<svg version="1.1" id="圖層_1" xmlns="http://www.w3.org/2000/svg" xmlns:xlink="http://www.w3.org/1999/xlink" x="0px" y="0px"
	 viewBox="0 0 429 427" style="enable-background:new 0 0 429 427;" xml:space="preserve">
<style type="text/css">
	.st0{fill:#FFFFFF;}
</style>
<g>
	<path class="st0" d="M385.7,1.7H172.3c-11.3,0-22.2,4.5-30.2,12.5c-8,8-12.5,18.9-12.5,30.2V87h170.7c11.3,0,22.2,4.5,30.2,12.5
		c8,8,12.5,18.9,12.5,30.2v170.7h42.7c11.3,0,22.2-4.5,30.2-12.5s12.5-18.9,12.5-30.2V44.3c0-11.3-4.5-22.2-12.5-30.2
		C407.8,6.2,397,1.7,385.7,1.7z"/>
	<path class="st0" d="M44.3,428.3h213.3c23.5,0,42.7-19.1,42.7-42.7V172.3c0-23.5-19.1-42.7-42.7-42.7H44.3
		c-23.5,0-42.7,19.1-42.7,42.7v213.3C1.7,409.2,20.8,428.3,44.3,428.3z M87,215h128v42.7H87V215z M87,300.3h128V343H87V300.3z"/>
</g>
</svg>
