<?xml version="1.0" encoding="UTF-8"?>
<svg id="_圖層_2" data-name="圖層 2" xmlns="http://www.w3.org/2000/svg" width="21.77" height="30" viewBox="0 0 21.77 30">
  <defs>
    <style>
      .cls-1 {
        fill: #fff;
        fill-rule: evenodd;
      }
    </style>
  </defs>
  <g id="_圖層_2-2" data-name="圖層 2">
    <path id="location1" class="cls-1" d="m10.89,5.9c2,0,3.81,1.2,4.57,3.04.76,1.84.34,3.95-1.08,5.36-.95.94-2.21,1.44-3.5,1.44-.64,0-1.28-.12-1.89-.37-1.85-.76-3.06-2.55-3.06-4.54,0-2.72,2.22-4.91,4.95-4.92h0Zm0-5.9C4.95,0,0,4.75,0,10.82c0,2.31.7,4.37,2.04,6.3l8.02,12.43c.19.3.51.46.83.46s.64-.15.83-.46l8.05-12.47c1.31-1.83,2.01-4.01,2.01-6.25C21.77,4.85,16.89,0,10.89,0h0Z"/>
  </g>
</svg>