<?xml version="1.0" encoding="UTF-8"?>
<svg id="_圖層_2" data-name="圖層 2" xmlns="http://www.w3.org/2000/svg" width="20.91" height="40" viewBox="0 0 20.91 40">
  <defs>
    <style>
      .cls-1 {
        fill: #fff;
      }
    </style>
  </defs>
  <g id="_圖層_2-2" data-name="圖層 2">
    <path id="location3" class="cls-1" d="m2.25,31.7l.06-.02c-.03-.07-.06-.1-.07-.18-.07-.08-.11-.16-.13-.25-.03-.18-.01-.23.13-.36v-.16s.02.02.02.02v.09s.04.01.04.01l.02-.04-.02-.04.03-.04-.02-.03.02-.04s-.07-.1-.06-.14l-.02-.02-.03.03.03.1-.03.06c-.05-.26-.19-.48-.29-.73-.07-.18-.14-.37-.21-.55-.04-.1-.09-.19-.13-.29-.03-.08-.05-.16-.07-.24,0-.01-.02-.03-.03-.04-.06-.23-.1-.46-.21-.68v-.06s-.02-.08-.02-.08c.04-.09,0-.21-.03-.29-.07-.26-.14-.39-.32-.58-.05-.05-.11-.11-.18-.12l-.03-.1s-.06.01-.06.01c-.11-.07-.18-.18-.28-.26,0,0-.18-.1-.19-.1-.06-.03-.13-.01-.18-.07l.07-.1c.1-.04.34-.1.4-.19h0c.03-.18-.04.07-.36.08v-.18s0-.08,0-.12c0-.08.07-.17.06-.25l.05-.05s.08-.01.12-.02l.07.03v-.11s-.08-.04-.1-.07c0-.04-.01-.13-.04-.15h-.04c0-.06-.03-.27,0-.31h.15s.02-.03.02-.03c0-.07-.02-.17-.08-.21.08-.06.05-.25.1-.35.01-.02.28-.05.32-.06l-.07-.05h-.23s-.05-.03-.05-.03c0-.02.05-.16.06-.19h.03s.07-.08.07-.08l-.03-.07.02-.07.05-.04.03-.07.08-.05v-.03s-.03-.08-.03-.08v-.04s.04-.02.04-.02c-.03-.03-.07-.09-.07-.13l.02-.07.05-.02.03-.09.02-.02.07.03h.02s.11.05.11.05h.04c-.1-.07-.17-.2-.25-.28v-.05c.11-.2.11-.32.13-.54l.03-.02.02.02-.04.28.09-.02.03.03h.02s0-.09.02-.12v-.02s.05-.18.05-.18l-.05-.15h-.06s-.03-.03-.03-.03v-.06s0-.04,0-.04v-.05s.04-.09.04-.09l-.05-.02-.04-.07.07-.13s.06-.01.07-.03h.03s.02-.06.02-.06l-.08-.04-.02.02h-.08s-.03-.03-.03-.03c.02-.04.02-.11,0-.15l.05-.05.03-.15h.13s.02-.03.02-.03c-.11-.02-.23-.16-.21-.27l.23-.03-.05-.05h-.14s-.01-.03-.01-.03l.04-.08-.05-.05v-.05s.07,0,.07,0l.03-.08-.06.02s-.07-.05-.11-.05l-.02-.05c.06-.21-.02-.47-.04-.68l-.04.06-.02-.02c.19-.36.2-.81.5-1.1h.04s.01.08.01.11l.06-.06.05.07.07.02.06.06s-.14-.2-.17-.23c-.02-.07.03-.13.04-.2,0-.03,0-.08,0-.11.01-.08.05-.27.12-.32v-.03s-.07.02-.07.02l-.02-.02c.06-.12.23-.39.35-.43l-.03-.03s.16-.21.19-.25h.03c.1-.11.18-.22.27-.34l-.02-.05c.03-.22.18-.21.22-.32.01-.04.02-.09.04-.13.03-.05.08-.1.1-.15.04-.08.07-.17.1-.26.01-.03.03-.07.06-.09l.04-.03c.04-.1.08-.21.13-.31.06-.12.2-.3.18-.45h.05c.01-.18.13-.23.2-.38h.05s.04-.1.04-.1c.07-.01.17-.08.22-.14l.05.02c.03-.11.11-.28.21-.36.04-.03.09-.04.12-.07,0-.03,0-.11.04-.13v-.02s-.06.02-.06.02c-.02-.05.06-.25.07-.31l-.02-.05.13-.19v-.03c.07-.13.32-.35.44-.49h.1s.09.07.09.07h.06s.07.11.08.14h.03c-.05-.23-.14-.28-.35-.34v-.03s.13-.24.13-.24c0,0,.05-.03.05-.04.04-.06.06-.14.1-.21.04-.08.09-.12.12-.23,0-.03-.02-.06-.03-.09l.06-.18.06.03s.06-.11.11-.12c-.01-.16.03-.4.15-.51,0-.05.02-.13.05-.18.1-.03.22-.26.19-.36.04-.04.08-.12.09-.17.02-.02.12-.03.15-.03-.04-.08-.04-.16.01-.22h.06s.09-.14.08-.19h.03s.05-.07.05-.07h.04c.07-.16.17-.18.25-.27.01-.01.06-.14.07-.16.04-.06.1-.11.13-.17,0,0,.04-.18.05-.2.03-.08.08-.15.1-.23.02-.08.01-.17.04-.24.04-.11.11-.24.17-.35,0-.02.01-.07.02-.09.04-.1.11-.19.17-.28.02-.03.09-.01.12-.02.06,0,.13-.04.19-.04.06,0,.13.04.19,0l-.09-.08-.02-.07h-.03s-.01-.05-.01-.05l.08-.17c.11-.01.15-.1.19-.19.11-.07.39-.1.51-.08,0,0,.14.07.15.08,0,0,.19,0,.21,0l.03-.05c-.07-.03-.14-.03-.22-.03l-.03-.05-.05.02-.03-.04h-.03c.08-.12.18-.19.27-.29.07-.08.03-.25.11-.33.03-.04.08-.07.11-.1.01,0,.05-.02.07-.03l.04.03s.08-.07.12-.07c0,0,.03-.03.03-.04.02-.07.04-.14.06-.2,0,0,.03-.04.03-.04.01-.06.05-.35.09-.37l.04-.02c-.02-.07-.05-.19-.03-.27l-.03-.02v-.04c0-.06.05-.14.1-.18h.04s.05.03.05.03h.06s0-.07,0-.09h.06s.03-.06.03-.06l-.04-.09c.05-.08.03-.16.07-.24.02-.05.05-.09.07-.14,0,0,.1-.1.11-.1h.09s.03-.02.03-.02c-.01-.03-.09-.05-.12-.05.04-.13.1-.25.23-.31l-.02-.05.02-.05s.1-.07.13-.1c0,0,.03-.06.04-.07,0-.01.06-.05.07-.06.04-.08.07-.17.11-.25v-.03c.01-.07-.04-.13,0-.21.07-.12.16-.23.25-.34.05-.06.23-.11.3-.15.08-.05.15-.12.23-.17.06-.04.15-.06.22-.1.02,0,.02-.02.04-.02.05-.02.11-.01.16-.02.08-.02.18-.06.25-.09.04-.02.1-.07.15-.07l.02.02s.14-.13.15-.13c.07-.04.16-.05.23-.08.03-.01.06-.04.09-.06.1-.04.21-.09.31-.12.13-.04.24,0,.37.02.03,0,.08,0,.11,0l.09-.08c.13-.05.31.02.44-.03.07-.02.13-.08.2-.11.07-.03.15-.05.22-.08.1-.05.41-.29.41-.4l-.1-.09.12-.1.05-.12c.04-.1.09-.1.14-.17,0,0,.07-.16.08-.17,0,0,0-.05,0-.06.02-.06.06-.13.08-.19l.12.03c.11-.08.12-.12.15-.24.06-.03.37-.17.38-.22l.09.04c.05-.01.11-.04.15-.07v-.03s0-.04,0-.04c.02-.02.15.05.18.06l.04-.02h.08s.11-.05.11-.05h.06s.06.06.06.06c.04,0,.1.01.14.03.07.12.13.09.18.13.21.16.22.29.27.52l.04.05.09-.02.02.03-.02.09.09.16s.14.08.2.08l.04-.06h.06s.09-.1.13-.1v.02s-.08.12-.08.12l.02.05-.07.1c0,.07.18.16.24.19v.1s.04.02.04.02l.11-.02.1.08h.04s.04.03.04.03h.09s-.01.09-.01.09l.05.06v.02s-.05.02-.05.02l-.05-.03v.14c.02-.06.13-.1.19-.12,0-.04.04-.11.08-.13l-.05-.02h0s.06-.07.06-.07h.06s.02.03.02.03l-.02.04c.1,0,.16.15.22.15h.02s0-.06,0-.06h.06s.03.11.07.13h.12s.02.09.03.13h.08c.06-.14.29-.09.37,0,.08-.03.22-.02.29.03l.24-.03.04-.05h.03s0,.07,0,.07l-.05.06.02.03h.06s0,.12-.04.15c.03.06-.04.16-.03.2.02.09.07.21.15.26l-.02.05c.05.11.01.33.15.38l-.05.05.05.02c.06-.03.11-.03.17-.04.13-.03.18-.08.3.01l.04.09h.03s.04-.04.04-.04l.08.06v.05s-.08.07-.12.08c-.04.05-.08.1-.13.14,0,0-.04.01-.05.02-.04.02-.07.07-.11.09-.04.02-.1.03-.13.04-.2.06-.32.12-.39.32-.08.02-.1.09-.16.13-.13.09-.12-.03-.19.17,0,.02-.02.06-.02.09-.07.11-.13.18-.23.26l-.1.08s-.06.11-.07.13c-.03.05-.07.09-.11.14-.11.17-.23.92-.21,1.17.01.18.07.34.13.51,0,0,0,.04,0,.05l-.08.02.02.02.08.02.02.03v.06s.03.06.03.06c.02.16.03.32.05.48.02.15.17.45.27.56.04.04.12.06.18.07v.02s0,.03,0,.03l-.21-.04-.04.07c0,.08,0,.14.07.18l.03-.03h.04s.02.05.02.05l-.04.03c-.06.1.06.51-.01.56-.1.01-.22.05-.31.1-.05.04-.05.17-.03.23.06.03.11.14.13.2l.08.02v.03s-.02.02-.02.02c-.14,0-.29.13-.38.22-.02.18-.18.24-.22.34-.05.12-.09.23-.11.36,0,.07,0,.15-.02.22-.02.11-.06.23-.1.34l-.08.19s0,.04,0,.07v.13s-.04.11-.01.14c0,.03-.03.11-.05.14-.04.04-.17.15-.18.19-.01.07-.02.19-.05.26,0,.02-.02.03-.04.04-.07.09-.12.16-.25.16-.04.02-.11.16-.12.21-.05.03-.28.16-.29.17-.12.14-.2.26-.26.44.13.29.11.28.02.59-.02.08-.28.25-.35.34l-.07.13s-.05.09-.05.14v.11s.01.09.03.12c.12.24.1.24.29.42.04.04.04.17.03.22h-.05l-.04.08c-.2.11-.35.32-.32.56l.04.06v.02s0,.02,0,.02c-.08.22-.05.36-.09.57-.02.11-.04.23-.06.35-.02.09-.09.19-.12.28-.02.06-.04.13-.05.2-.02.06-.1.11-.1.19,0,.1-.01.22,0,.31,0,.06.03.12.03.18,0,.04-.04.12-.05.15-.03.07-.06.13-.1.19-.09.15-.15.21-.07.38-.02.05-.04.1-.05.15-.02.12-.03.24-.05.36,0,.01-.05.08-.05.09-.04.09-.06.23-.07.33,0,.08,0,.18,0,.26,0,0-.08.35-.09.37-.03.07-.09.13-.11.2-.02.06-.02.13-.03.19-.01.04-.05.08-.06.11-.02.07,0,.17.01.24,0,.05.03.13.09.14v.05s.03.04.03.04c-.15.17-.17.24-.2.48,0,.04,0,.06-.01.1-.02.07-.07.17-.11.24-.04.19-.03.15-.13.3,0,.12,0,.25-.02.37,0,.04-.04.09-.05.13,0,.01.02.07.02.08-.02.09-.05.19-.08.27,0,0-.02.03-.02.03h-.07s-.24.3-.25.33c-.01.05-.02.12-.04.17,0,.01-.05.07-.05.08-.03.1-.04.23-.05.33l.04.08c.01.08-.16.17-.2.22-.1.11,0,.4.06.5l-.08.24s.02.07,0,.1l.06.13.04.02.02.03-.1.09-.07-.02c-.03.06-.08.18-.13.23h-.14s-.17.13-.18.19l.02.06c-.13.1-.08.12-.1.24-.02.09-.05.19-.08.28-.01.04-.05.08-.06.13l-.05.04v.06c-.1.04-.07.2-.08.24-.05.17-.17.3-.28.43l-.08.02c-.11.12-.14.35-.21.5-.05.1-.16.27-.23.35,0,0-.1.06-.11.06,0,.03-.02.1-.05.12-.12-.02-.23.02-.33.1l-.08.07s-.06.16-.06.19c.02.14.15.37.07.51h-.04s-.06.07-.06.07c-.02.04-.02.1-.04.15-.02.07-.08.17-.12.23,0,0-.06.02-.06.03-.11.12-.23.26-.35.36-.06.05-.17.1-.24.15-.07.04-.17.06-.24.09-.1.05-.17.16-.26.22l-.17.1c-.06.03-.07.04-.08.05,0,0-.02.01-.04.04l-.07.07c-.04.05-.08.15-.1.21-.08.2-.05.55-.16.68-.06.08-.16.13-.22.21,0,0-.09.17-.09.18-.05.12-.08.26-.12.38-.03.1-.08.2-.11.3-.03.13-.05.27-.08.4h-.02c-.05.16-.1.31-.16.46-.02.04-.06.09-.08.13l-.21.6s-.05.06-.06.08c-.03.07-.05.16-.07.23-.08.32,0,.87.06,1.2,0,0,0,.01,0,.01,0,.01-.04.11-.04.12,0,.05.01.1,0,.15,0,.06-.04.13-.04.19,0,.07.02.14.03.21l-.05.12c.02.05.03.14.02.2h.03s.01.03.01.03c-.28.22.02.39.02.49,0,.02-.09.21-.09.21,0,.14,0,.29.05.42.01.04.06.09.05.14-.07.04-.16.15-.16.23l-.07.02-.02.04v.06c-.02.13-.31.18-.33.21,0,.08-.02.17-.03.24-.05.25.07.37.19.57v.09s.03.09.03.09v.03s-.09.02-.11.01l-.04-.03-.06-.18h-.08c-.04-.06-.11-.17-.17-.2h-.1s-.08-.09-.08-.09l-.02.05h-.02s-.03-.06-.03-.06c-.03-.03-.13-.05-.17-.04l-.19-.14h-.03s-.15.16-.15.16c-.02.09-.05.32-.17.33l-.06-.02s-.07-.09-.1-.14h-.05c-.05-.13.06-.34.03-.51-.03-.19-.16-.23-.22-.34l-.04-.12c-.06-.16-.05-.21.09-.32-.02-.04-.03-.11,0-.15.14-.05.12-.24.04-.34l.03-.06s.12-.05.13-.09c-.02-.08-.09-.42-.17-.44-.01-.04-.03-.12-.02-.16v-.05c-.07-.24-.17-.49-.18-.74-.07-.07-.08-.19-.14-.26,0,0-.16-.14-.18-.16,0,0-.02-.05-.02-.05h0c0-.1-.04-.37-.1-.42v-.12c-.04-.07-.18-.31-.25-.36-.06-.04-.13-.04-.18-.13-.04-.07-.04-.16-.09-.24-.05-.07-.13-.16-.19-.21-.05-.03-.11-.05-.16-.08-.06-.04-.11-.09-.17-.12-.07-.04-.15-.08-.22-.12-.12-.06-.24-.15-.36-.21-.12-.06-.27-.11-.35-.22.05-.02.25.11.29.13h.04s.02-.05.02-.05c0-.05-.15-.16-.2-.18l-.07.02-.05-.02-.07.05h-.04c-.04-.06-.1-.11-.12-.17l.05-.03.02-.05h-.05s-.06-.14-.07-.19l-.03.06h-.04s-.02-.11-.02-.11h-.04s-.04-.04-.06-.06l.02.12-.02.05s-.13-.2-.15-.24l-.08-.04v.02s.02.17.02.17l.15.1.02.05-.02.02c-.22-.1-.3-.24-.49-.35l-.07.03s-.02-.07-.01-.09c-.02-.04-.05-.07-.08-.1-.07-.06-.15-.11-.21-.18-.09-.09-.16-.21-.24-.3-.02-.02-.05-.03-.06-.05-.11-.14-.24-.44-.4-.52h0Z"/>
  </g>
</svg>