<?xml version="1.0" encoding="UTF-8"?>
<svg id="_圖層_2" data-name="圖層 2" xmlns="http://www.w3.org/2000/svg" width="30" height="30.23" viewBox="0 0 30 30.23">
  <defs>
    <style>
      .cls-1 {
        fill: #fff;
      }
    </style>
  </defs>
  <g id="_圖層_2-2" data-name="圖層 2">
    <path id="location2" class="cls-1" d="m27.19,15.11c0-6.78-5.46-12.28-12.19-12.28S2.81,8.33,2.81,15.11s5.46,12.28,12.19,12.28,12.19-5.5,12.19-12.28h0ZM0,15.11C0,6.77,6.72,0,15,0s15,6.77,15,15.11-6.72,15.11-15,15.11S0,23.46,0,15.11h0Zm17.97,4.08l-8.46,3.28c-1.14.44-2.26-.68-1.82-1.83l3.25-8.52c.19-.5.58-.89,1.08-1.09l8.46-3.28c1.14-.44,2.26.68,1.82,1.83l-3.25,8.52c-.19.5-.58.89-1.08,1.09h0Zm-1.1-4.08c0-1.04-.84-1.89-1.87-1.89s-1.87.85-1.87,1.89.84,1.89,1.87,1.89,1.87-.85,1.87-1.89h0Z"/>
  </g>
</svg>