<?xml version="1.0" encoding="UTF-8"?><svg id="_圖層_2" xmlns="http://www.w3.org/2000/svg" xmlns:xlink="http://www.w3.org/1999/xlink" viewBox="0 0 306.36 38"><defs><style>.cls-1{fill:#fff;}.cls-2{fill:#cab272;}.cls-3{fill:#2878b9;}.cls-4{fill:#9ec317;}.cls-5{fill:#e95513;}.cls-6{clip-path:url(#clippath-1);}.cls-7{clip-path:url(#clippath);}.cls-8{fill:none;}</style><clipPath id="clippath"><circle class="cls-8" cx="19" cy="19.04" r="13.1"/></clipPath><clipPath id="clippath-1"><circle class="cls-8" cx="19" cy="19.04" r="13.1"/></clipPath></defs><g id="_圖層_2-2"><g id="_圖層_2-2"><g id="logo"><path class="cls-1" d="m69.18,24.23c-1.02.52-2.04,1.04-3,1.49,1.02.73,2.22,1.33,3.63,1.7-.6.58-1.44,1.62-1.83,2.38-3.47-1.18-5.75-3.63-7.08-6.98-.76.65-1.59,1.25-2.53,1.8v2.25l3.68-.71c-.08.68-.08,1.7-.03,2.27-4.83,1.04-5.7,1.28-6.19,1.59-.16-.6-.63-1.59-.99-2.09.47-.21,1.04-.73,1.04-1.78v-.24c-.73.31-1.44.55-2.14.78-.29-.44-.76-1.02-1.2-1.51l.03.18c-2.4.71-4.96,1.36-7.08,1.93l-.52-2.82c.76-.16,1.59-.37,2.56-.6v-6.43h-2.04v-2.69h2.04v-4.86h-2.22v-2.72h7.08v2.72h-2.14v4.86h1.91v2.69h-1.91v5.77l1.96-.52.23,1.78c1.85-.5,3.79-1.23,5.35-2.12h-3v-5.72h13.01v5.72h-4.36c.29.65.68,1.25,1.12,1.78.97-.55,1.93-1.23,2.59-1.75l2.04,1.83v.02Zm.08-8.49h-15.99v-2.46h15.99v2.46Zm-.84-3.29h-14.24v-5.93h14.24v5.93Zm-10.08-3.84h-1.65v1.75h1.65v-1.75Zm-.81,11.62h7.34v-1.46h-7.34v1.46Zm4.52-11.62h-1.67v1.75h1.67v-1.75Zm3.71,0h-1.72v1.75h1.72v-1.75Z"/><path class="cls-1" d="m80.47,23.78c-2.69,1.12-5.67,2.33-8.02,3.24l-1.02-3.19c.86-.26,1.88-.57,3-.97v-8.05h-2.53v-2.95h2.53v-5.85h3.03v5.85h2.22v2.95h-2.22v7c.81-.29,1.59-.58,2.4-.86l.6,2.82h.01Zm12.07,3.53c.18,0,.39,0,.52-.05s.23-.21.31-.52c.05-.31.08-1.02.1-1.96.52.5,1.65,1.02,2.38,1.28-.08.97-.18,2.01-.39,2.46-.24.44-.6.76-1.1.97-.39.16-1.12.24-1.62.24h-1.67c-.68,0-1.52-.21-1.99-.63-.5-.44-.73-.99-.73-2.59v-3.16h-1.88c-.44,3.45-1.75,5.59-6.64,6.82-.26-.71-.99-1.85-1.59-2.38,4.02-.78,4.96-2.12,5.33-4.44h-2.17v-7.89h12.51v7.89h-2.69v3.24c0,.34,0,.52.1.63.1.08.26.1.47.1h.75Zm2.66-12.75h-14.81v-2.56h3.16c-.13-.58-.37-1.2-.58-1.72l2.51-.5c.31.65.65,1.57.81,2.22h2.95c.29-.73.58-1.57.76-2.22l2.82.52c-.31.6-.57,1.18-.86,1.7h3.24v2.56Zm-.68-4.81h-13.4v-2.51h5.17c-.16-.42-.31-.86-.44-1.23l2.93-.55c.23.52.5,1.2.71,1.78h5.04v2.51h0Zm-10.27,8.73h6.69v-1.1h-6.69v1.1Zm0,2.9h6.69v-1.1h-6.69v1.1Z"/><path class="cls-1" d="m120.25,10.69c-.21,6.87-.23,15.86.65,16.17.13.03.26-1.86.29-3.74.47.73,1.25,1.8,1.7,2.17-.21,4.23-1.51,5.2-3.16,4.52-1.44-.57-2.04-3.45-2.3-7.31l-1.49,1.99c-.37-.5-.89-1.04-1.49-1.65-.73,2.69-2.04,5.25-4.21,7.26-.52-.55-1.65-1.49-2.38-1.85,2.3-2.12,3.5-4.83,4.1-7.6-.89-.76-1.85-1.46-2.74-2.09v2.3h-3.53v1.8h4.26v2.61h-4.26v4.73h-2.87v-4.73h-4.54v-2.61h4.54v-1.8h-3.76v-2.61h1.75c-.23-.86-.68-2.01-1.12-2.9l1.36-.5h-2.74v-2.61h4.41v-1.67h-3.6v-2.56h3.6v-2.33h2.87v2.33h3.42v2.56h-3.42v1.67h4.13v2.61h-3.45l2.38.6c-.39.99-.78,1.96-1.15,2.79h1.72v.08l1.54-1.99c.55.31,1.1.71,1.67,1.12.13-1.28.16-2.56.16-3.71v-.21h-2.51v-2.85h2.51v-4.96h2.9v4.96h4.76Zm-18.23,4.15c.52.97,1.04,2.12,1.2,2.93l-1.2.47h3c.39-.99.81-2.4,1.04-3.4h-4.05.01Zm13.48-1.04c0,1.75-.08,3.71-.34,5.72.86.68,1.62,1.41,2.22,2.06-.1-2.43-.1-5.2-.08-8.02h-1.8v.23h0Z"/><path class="cls-1" d="m129.4,18.06c-1.02-.86-3.21-2.09-4.89-2.82l1.65-2.33c1.62.63,3.84,1.7,4.96,2.56l-1.72,2.59Zm-3.97,9.64c1.41-1.99,3.4-5.2,4.94-8.23l2.3,2.09c-1.38,2.72-3.06,5.7-4.6,8.23,0,0-2.64-2.09-2.64-2.09Zm5.49-16.56c-1.04-.89-3.19-2.14-4.86-2.9l1.7-2.3c1.65.65,3.87,1.8,4.96,2.64l-1.8,2.56Zm14.89,18.94c-.18-.68-.5-1.49-.91-2.3-8.7,1.04-10.03,1.25-10.89,1.7-.18-.68-.71-2.22-1.1-3.11.6-.18,1.1-.73,1.7-1.67.47-.71,1.72-3,2.77-5.59h-4.91v-2.93h6.19v-3.68h-5.15v-2.95h5.15v-3.89h3.16v3.89h5.33v2.95h-5.33v3.68h6.3v2.93h-7.11c-1.04,2.38-2.35,4.73-3.63,6.71l6.14-.63c-.55-.94-1.15-1.88-1.75-2.69l2.53-1.25c1.72,2.27,3.63,5.3,4.31,7.42l-2.8,1.41h0Z"/><path class="cls-1" d="m159.13,19.39l.71,2.77c-2.72,1.33-5.64,2.74-8.02,3.81l-1.25-3.13c.97-.34,2.12-.76,3.4-1.28v-6.92h-2.82v-2.95h2.82v-5.67h2.87v5.67h2.43v2.95h-2.43v5.72l2.3-.97h0Zm11.65,7.42c1.41,0,1.67-.6,1.91-3.27.68.47,1.85.97,2.72,1.12-.42,3.66-1.31,4.91-4.36,4.91h-5.56c-3.53,0-4.54-.97-4.54-4.55v-6.74l-1.41.6-1.15-2.74,2.56-1.1v-6.87h2.98v5.59l2.17-.91v-7.21h2.9v5.96l2.85-1.23,2.35.76-.1.47c-.16,3.63-.52,8.38-1.15,11.52l-2.53-.71c.29-2.12.5-5.43.6-8.52l-2.01.89v9.22h-2.9v-7.97l-2.17.94v8.07c0,1.51.24,1.75,1.83,1.75h5.04l-.03.02Z"/><path class="cls-1" d="m186.22,24.85c-2.87,1.02-6.01,2.01-8.52,2.82l-.71-3.16c.91-.24,1.99-.52,3.19-.86v-6.14h-2.64v-2.85h2.64v-4.6h-2.87v-2.9h8.62v2.9h-2.8v4.6h2.35v2.85h-2.35v5.22c.86-.26,1.72-.52,2.56-.81l.52,2.93h.01Zm15.52,1.59v2.82h-16.8v-2.82h7.21v-2.48h-5.41v-2.79h5.41v-2.25h-5.22V6.78h13.64v12.15h-5.25v2.25h5.54v2.79h-5.54v2.48h6.43,0Zm-12.02-14.86h2.69v-2.17h-2.69v2.17Zm0,4.7h2.69v-2.25h-2.69v2.25Zm7.89-6.87h-2.59v2.17h2.59v-2.17Zm0,4.62h-2.59v2.25h2.59v-2.25Z"/><path class="cls-1" d="m220.18,10.33c1.41,1.38,4.18,2.04,7.71,2.22-.63.6-1.36,1.72-1.72,2.48-2.93-.37-5.2-1.2-6.84-2.64-.99,1.15-3.16,2.17-7.55,2.66-.21-.5-.63-1.15-1.04-1.7h-6.92v-2.38h7.89v1.59c4.99-.52,5.64-1.7,5.64-2.66v-.39h-1.57c-.55.86-1.18,1.65-1.83,2.25-.5-.47-1.65-1.23-2.3-1.59,1.38-1.15,2.46-2.87,3.06-4.65l2.72.6c-.13.39-.29.78-.44,1.15h7.42l.47-.13,2.12.65c-.68,1.44-1.57,3.08-2.4,4.13l-2.4-.89c.29-.42.63-.97.91-1.51h-2.9v.81h-.03Zm.71,15.36c2.4.89,4.96,1.93,6.5,2.69l-2.8,1.67c-1.49-.86-4.21-2.14-6.79-3.08l1.59-1.28h-7.37l2.27,1.04c-2.14,1.36-5.51,2.66-8.15,3.4-.52-.6-1.62-1.75-2.3-2.27,2.51-.47,5.3-1.25,7.13-2.17h-3.76v-10.61h17.48v10.61h-3.81,0Zm-9.8-16.46h-6.69v-2.27h6.69v2.27Zm-.86,8.83h11.31v-1.12h-11.31v1.12Zm0,2.87h11.31v-1.12h-11.31v1.12Zm0,2.93h11.31v-1.17h-11.31v1.17Z"/><path class="cls-1" d="m239.7,12.45h-9.56v-2.46h4.15c-.34-.99-.99-2.3-1.54-3.29l2.22-1.12c.63,1.07,1.38,2.51,1.75,3.47l-1.59.94h4.57v2.46h0Zm-8.49,3.53v-2.35h7.58v2.35h-7.58Zm0,1.15h7.63v2.35h-7.63v-2.35Zm7.63,11.52h-5.22v1.1h-2.38v-9.01h7.6v7.92h0Zm-5.22-5.43v2.93h2.77v-2.93h-2.77Zm18.18-16.2c-.24,8.59-.21,19.3.76,19.62.13.05.26-1.65.34-3.32.42.81,1.18,2.04,1.62,2.51-.39,3.81-1.72,4.62-3.34,3.94-2.48-1.04-2.51-10.08-2.48-19.8h-3.16v6.9h2.51v2.9h-2.51v10.29h-2.9v-10.29h-2.93v-2.9h2.93v-6.9h-2.56v-2.95h11.73,0Z"/><path class="cls-1" d="m280.42,21.46h-10.27v8.62h-3.24v-8.62h-10.16v-3.16h10.16v-7.92h-8.8v-3.08h20.79v3.08h-8.75v7.92h10.27v3.16h0Zm-17.87-10.24c.86,1.67,1.8,3.87,2.09,5.33l-3.03.94c-.26-1.38-1.07-3.68-1.91-5.43l2.85-.84Zm9.69,5.43c.84-1.51,1.78-3.81,2.27-5.51l3.32.84c-.94,2.01-2.01,4.13-2.87,5.46l-2.72-.78h0Z"/><path class="cls-1" d="m299.49,8.08c2.4,2.25,5.51,5.46,6.87,7.65l-2.64,1.91c-.34-.58-.81-1.25-1.36-1.99-13.87.68-15.73.73-17.11,1.2-.16-.63-.65-2.17-1.02-2.98.68-.18,1.31-.68,2.17-1.52.91-.81,3.76-3.97,5.54-7.11l3.13,1.33c-1.65,2.43-3.71,4.75-5.69,6.66l10.71-.34c-1.02-1.15-2.06-2.25-3.03-3.21l2.43-1.62v.02Zm-13.38,10.5h17.61v11.44h-3.34v-1.31h-11.08v1.33h-3.19v-11.47h0Zm3.19,2.98v4.18h11.08v-4.18h-11.08Z"/><path class="cls-1" d="m19,38C8.52,38,0,29.48,0,19S8.52,0,19,0s19,8.52,19,19-8.52,19-19,19Zm0-36C9.63,2,2,9.63,2,19s7.63,17,17,17,17-7.63,17-17S28.37,2,19,2Z"/><path class="cls-1" d="m19,38C8.52,38,0,29.48,0,19S8.52,0,19,0s19,8.52,19,19-8.52,19-19,19Zm0-36C9.63,2,2,9.63,2,19s7.63,17,17,17,17-7.63,17-17S28.37,2,19,2Z"/><g class="cls-7"><path class="cls-1" d="m19.3,14.26l-1.65-.97.92-1.7,1.73.81-.47,1.06-.53.79Zm-1.22-1.74l.83.35-.83-.35Z"/><path class="cls-1" d="m30.66,25.41H7.88l9.26-16.56.41-.87.24.1c.84-.67,2.1-.68,2.94-.01l.25-.1.39.83,9.29,16.62Zm-19.37-2h15.96l-7.34-13.13h-.11l-.21-.54c-.17-.23-.51-.22-.68.04l-7.62,13.63Z"/><path class="cls-1" d="m27.9,25.19H10.61l8.64-15.43,8.65,15.43Zm-13.87-2h10.46l-5.23-9.33-5.23,9.33Z"/><path class="cls-1" d="m34.1,25.78h-4.46l-7.58-13.69.29-.58c.42-.69,1.12-1.1,1.89-1.1s1.45.41,1.88,1.09l.02.04,7.96,14.24Z"/><path class="cls-1" d="m8.88,25.78h-4.46l7.99-14.28c.43-.68,1.13-1.09,1.88-1.09s1.47.41,1.89,1.1l.29.58-7.58,13.69Z"/><polygon class="cls-1" points="18.71 14.28 18.08 13.3 17.71 12.42 19.42 11.57 20.34 13.27 18.71 14.28"/><path class="cls-1" d="m11.65,25.21c-2.14,0-4.29-.53-6.44-2.03l-.44-.31.12-4.13,1.52,1.06c3.96,2.76,8.07,1.52,12.43.21,4.62-1.39,9.4-2.83,14.15.49l.44.31-.12,4.13-1.52-1.06c-3.96-2.76-8.07-1.52-12.43-.21-2.53.76-5.11,1.54-7.71,1.54Z"/><path class="cls-1" d="m11.55,29.11c-2.14,0-4.29-.53-6.44-2.03l-.44-.31.16-6.3,1.52,1.06c3.96,2.76,8.07,1.52,12.43.21,4.62-1.39,9.4-2.83,14.15.49l.44.31-.16,6.3-1.52-1.06c-3.96-2.76-8.07-1.52-12.43-.21-2.53.76-5.11,1.54-7.71,1.54Zm-4.85-3.38c3.82,2.38,7.79,1.18,11.99-.08,4.13-1.24,8.38-2.52,12.62-.42l.04-1.64c-3.82-2.38-7.79-1.18-11.99.08-4.12,1.24-8.38,2.52-12.62.42l-.04,1.64Z"/><path class="cls-1" d="m11.34,37.06c-2.14,0-4.29-.53-6.44-2.03l-.44-.31.21-8.22,1.52,1.07c3.71,2.59,7.69,1.39,11.91.12,4.53-1.37,9.65-2.91,14.67.58l.44.31-.21,8.22-1.52-1.06c-3.96-2.76-8.07-1.52-12.43-.21-2.53.76-5.11,1.54-7.71,1.54Zm-4.85-3.38c3.82,2.38,7.79,1.19,11.99-.08,4.13-1.24,8.38-2.52,12.62-.42l.09-3.56c-4.07-2.56-8.17-1.32-12.51-.02-3.98,1.2-8.09,2.44-12.1.51l-.09,3.57Z"/><path class="cls-1" d="m11.14,31.11c-2.04,0-4.08-.5-6.09-1.9l-.44-.31.13-4.52,1.52,1.06c3.96,2.76,8.07,1.52,12.43.21,4.62-1.39,9.4-2.83,14.15.49l.44.31-.13,4.52-1.52-1.06c-4.22-2.95-8.46-1.67-12.95-.31-2.48.75-5.02,1.51-7.55,1.52Zm-2.9-2.49c.98.34,2,.47,2.99.48-.99-.03-1.99-.17-2.99-.48Zm17.72-2.49c1.22,0,2.45.16,3.69.56-1.23-.46-2.48-.61-3.75-.56h.06Z"/><path class="cls-1" d="m11.64,26.64c-.12,0-.24,0-.35,0-2.3-.06-4.34-.73-6.23-2.05l-1-.7,1.71-1.64.67.47c3.88,2.71,7.75,1.54,12.24.18,4.45-1.34,9.5-2.87,14.34.52l1,.7-1.71,1.64-.67-.47c-3.88-2.7-7.75-1.54-12.24-.18-2.56.77-5.13,1.54-7.75,1.54Z"/><path class="cls-1" d="m11.6,27.94c-.12,0-.23,0-.35,0-2.3-.06-4.34-.73-6.23-2.05l-1-.7,1.71-1.64.67.47c3.88,2.71,7.75,1.54,12.24.18,4.45-1.34,9.5-2.87,14.34.52l1,.7-1.71,1.64-.67-.47c-3.88-2.71-7.75-1.54-12.24-.18-2.56.77-5.13,1.54-7.75,1.54Z"/></g><path class="cls-1" d="m15.38,34.86l-1.31-.42c-2.49-.8-4.68-2.14-6.53-3.98-3.06-3.06-4.74-7.13-4.74-11.46s1.68-8.4,4.74-11.46c1.84-1.85,4.04-3.19,6.53-3.99l1.3-.42v4.35l-.65.24c-1.59.6-3.02,1.52-4.25,2.75-2.27,2.27-3.53,5.3-3.53,8.51s1.25,6.24,3.53,8.51c1.22,1.22,2.65,2.14,4.25,2.75l.64.24v4.35Zm-2-28.91c-1.66.71-3.14,1.72-4.42,3.01-2.68,2.68-4.16,6.25-4.16,10.04s1.48,7.36,4.16,10.04c1.29,1.29,2.77,2.3,4.42,3.01v-.18c-1.61-.7-3.05-1.69-4.31-2.94-2.65-2.65-4.11-6.18-4.11-9.93s1.46-7.28,4.11-9.93c1.26-1.26,2.71-2.25,4.31-2.95v-.18Z"/><path class="cls-1" d="m22.62,34.86v-4.35l.65-.24c1.59-.6,3.02-1.52,4.25-2.75,2.27-2.27,3.53-5.3,3.53-8.51s-1.25-6.24-3.53-8.51c-1.22-1.22-2.65-2.14-4.25-2.75l-.64-.24V3.14l1.31.42c2.45.78,4.71,2.16,6.53,3.99,3.06,3.06,4.74,7.13,4.74,11.46s-1.68,8.4-4.74,11.46c-1.84,1.85-4.04,3.19-6.53,3.99l-1.3.42Zm2-2.98v.18c1.66-.71,3.14-1.72,4.42-3.01,2.68-2.68,4.16-6.25,4.16-10.04s-1.48-7.36-4.16-10.04c-1.29-1.29-2.77-2.3-4.42-3.01v.18c1.61.7,3.05,1.69,4.31,2.94,2.65,2.65,4.11,6.18,4.11,9.93s-1.46,7.27-4.11,9.93c-1.26,1.26-2.71,2.25-4.31,2.95Z"/><circle class="cls-3" cx="19" cy="19" r="18"/><g class="cls-6"><path class="cls-5" d="m19,12.91c.03-.07-.04.06,0,0h0Z"/><path class="cls-1" d="m20.48,9.28c-.03-.08.04.07,0,0-.27-.44-.72-.73-1.22-.73s-.96.29-1.22.73c-.04.07.03-.08,0,0l-8.46,15.13h19.37l-8.46-15.13h-.01Z"/><polygon class="cls-4" points="19.25 11.81 12.32 24.19 26.19 24.19 19.25 11.81"/><path class="cls-1" d="m25.26,12.03c-.23-.37-.6-.62-1.03-.62s-.8.24-1.03.62l-.02.04,7.04,12.71h2.17s-7.13-12.75-7.13-12.75Z"/><path class="cls-1" d="m13.25,12.03c.23-.37.6-.62,1.03-.62s.8.24,1.03.62l.02.04-7.04,12.71h-2.17s7.13-12.75,7.13-12.75Z"/><path class="cls-5" d="m19,12.91c.04.06-.03-.07,0,0h0Z"/><path class="cls-3" d="m32.36,23.06c-8.71-6.08-17.87,5.38-26.58-.7l.05-1.74c8.71,6.08,17.87-5.38,26.58.7l-.05,1.74Z"/><path class="cls-1" d="m32.26,26.96c-8.71-6.08-17.87,5.38-26.58-.7l.1-3.9c8.71,6.08,17.87-5.38,26.58.7l-.1,3.9Z"/><path class="cls-4" d="m5.62,28.39l-.15,5.82c8.71,6.08,17.87-5.38,26.58.7l.15-5.82c-9.06-6.32-18.21,5.15-26.58-.7Z"/><path class="cls-2" d="m5.68,26.26l-.06,2.13c8.37,5.85,17.53-5.63,26.58.7l.06-2.13c-8.71-6.08-17.87,5.38-26.58-.7Z"/><path class="cls-3" d="m11.31,25.64c-1.91-.05-3.81-.56-5.69-1.87l.24-.23c4.27,2.98,8.56,1.69,13.1.32,4.44-1.34,9.04-2.72,13.48.38l-.24.23c-4.27-2.98-8.56-1.69-13.1-.32-2.57.77-5.18,1.56-7.79,1.49Z"/><path class="cls-3" d="m11.28,26.94c-1.91-.05-3.81-.56-5.69-1.87l.24-.23c4.27,2.98,8.56,1.69,13.1.32,4.44-1.34,9.04-2.72,13.48.38l-.24.23c-4.27-2.98-8.56-1.69-13.1-.32-2.57.77-5.18,1.56-7.79,1.49Z"/></g><path class="cls-1" d="m9.78,28.22c-2.46-2.46-3.82-5.74-3.82-9.22s1.36-6.76,3.82-9.22c1.33-1.33,2.9-2.34,4.6-2.98v-2.29c-2.29.73-4.39,1.99-6.13,3.74-2.87,2.87-4.45,6.69-4.45,10.75s1.58,7.88,4.45,10.75c1.75,1.75,3.85,3.01,6.13,3.74v-2.29c-1.71-.65-3.27-1.65-4.6-2.98Z"/><path class="cls-1" d="m34.2,19c0-4.06-1.58-7.88-4.45-10.75-1.75-1.75-3.85-3.01-6.13-3.74v2.29c1.71.65,3.27,1.65,4.6,2.98,2.46,2.46,3.82,5.74,3.82,9.22s-1.36,6.76-3.82,9.22c-1.33,1.33-2.9,2.34-4.6,2.98v2.29c2.29-.73,4.39-1.99,6.13-3.74,2.87-2.87,4.45-6.69,4.45-10.75Z"/></g></g></g></svg>